<mxfile host="app.diagrams.net" modified="2023-12-03T10:13:11.411Z" agent="Mozilla/5.0 (Windows NT 10.0; Win64; x64) AppleWebKit/537.36 (KHTML, like Gecko) Chrome/121.0.0.0 Safari/537.36 Edg/121.0.0.0" etag="tYU6ls2Esyjf8CX-bZqn" version="22.1.5" type="device">
  <diagram name="Page-1" id="uZ3OU5pdZBP6D6zqTWE5">
    <mxGraphModel dx="1282" dy="557" grid="1" gridSize="10" guides="1" tooltips="1" connect="1" arrows="1" fold="1" page="1" pageScale="1" pageWidth="850" pageHeight="1100" math="0" shadow="0">
      <root>
        <mxCell id="0" />
        <mxCell id="1" parent="0" />
        <mxCell id="-3wzFjzAV5iXs3W9r8vI-2" value="" style="swimlane;startSize=0;" parent="1" vertex="1">
          <mxGeometry x="130" y="30" width="460" height="250" as="geometry" />
        </mxCell>
        <mxCell id="-3wzFjzAV5iXs3W9r8vI-3" value="&lt;font style=&quot;font-size: 18px;&quot;&gt;HOTEL MANAGEMENT&lt;/font&gt;" style="text;html=1;align=center;verticalAlign=middle;resizable=0;points=[];autosize=1;strokeColor=none;fillColor=none;" parent="-3wzFjzAV5iXs3W9r8vI-2" vertex="1">
          <mxGeometry x="120" y="-5" width="220" height="40" as="geometry" />
        </mxCell>
        <mxCell id="-3wzFjzAV5iXs3W9r8vI-18" value="Quản lí phòng và khách sạn" style="ellipse;whiteSpace=wrap;html=1;" parent="-3wzFjzAV5iXs3W9r8vI-2" vertex="1">
          <mxGeometry x="310" y="60" width="100" height="60" as="geometry" />
        </mxCell>
        <mxCell id="-3wzFjzAV5iXs3W9r8vI-19" value="Tạo và xem báo cáo" style="ellipse;whiteSpace=wrap;html=1;" parent="-3wzFjzAV5iXs3W9r8vI-2" vertex="1">
          <mxGeometry x="310" y="140" width="100" height="60" as="geometry" />
        </mxCell>
        <mxCell id="-3wzFjzAV5iXs3W9r8vI-20" value="Manager" style="shape=umlActor;verticalLabelPosition=bottom;verticalAlign=top;html=1;outlineConnect=0;" parent="1" vertex="1">
          <mxGeometry x="710" y="130" width="30" height="60" as="geometry" />
        </mxCell>
        <mxCell id="-3wzFjzAV5iXs3W9r8vI-23" value="" style="endArrow=none;html=1;rounded=0;entryX=0;entryY=0.3333333333333333;entryDx=0;entryDy=0;entryPerimeter=0;exitX=1;exitY=0.5;exitDx=0;exitDy=0;" parent="1" source="-3wzFjzAV5iXs3W9r8vI-18" target="-3wzFjzAV5iXs3W9r8vI-20" edge="1">
          <mxGeometry width="50" height="50" relative="1" as="geometry">
            <mxPoint x="530" y="490" as="sourcePoint" />
            <mxPoint x="580" y="440" as="targetPoint" />
          </mxGeometry>
        </mxCell>
        <mxCell id="-3wzFjzAV5iXs3W9r8vI-24" value="" style="endArrow=none;html=1;rounded=0;entryX=0;entryY=0.3333333333333333;entryDx=0;entryDy=0;entryPerimeter=0;exitX=1;exitY=0.5;exitDx=0;exitDy=0;" parent="1" source="-3wzFjzAV5iXs3W9r8vI-19" target="-3wzFjzAV5iXs3W9r8vI-20" edge="1">
          <mxGeometry width="50" height="50" relative="1" as="geometry">
            <mxPoint x="530" y="490" as="sourcePoint" />
            <mxPoint x="580" y="440" as="targetPoint" />
          </mxGeometry>
        </mxCell>
        <mxCell id="-3wzFjzAV5iXs3W9r8vI-25" value="Khách hàng" style="shape=umlActor;verticalLabelPosition=bottom;verticalAlign=top;html=1;outlineConnect=0;" parent="1" vertex="1">
          <mxGeometry x="50" y="110" width="30" height="60" as="geometry" />
        </mxCell>
      </root>
    </mxGraphModel>
  </diagram>
</mxfile>
